# xmcd CD database file
#
# Track frame offsets:
#	150
#	13829
#	28127
#	38497
#	48950
#	61924
#	76403
#	91806
#	107121
#	118577
#	129448
#	140246
#	152639
#	163890
#
# Disc length: 2362 seconds
#
# Revision: 0
# Processed by: cddbd v1.5.2PL0 Copyright (c) Steve Scherf et al.
# Submitted via: CDex 1.99.1
#
DISCID=b509380e
DTITLE=JORGE E MATEUS - TERRA SEM CEP
DYEAR=2018
DGENRE=Country
TTITLE0=JORGE E MATEUS - OLHARES SINCEROS
TTITLE1=JORGE E MATEUS - ANJO MODERNO
TTITLE2=JORGE E MATEUS - PROPAGANDA
TTITLE3=JORGE E MATEUS - TRINCADINHO
TTITLE4=JORGE E MATEUS - VALE POR DEZ
TTITLE5=JORGE E MATEUS - A MIL POR HORA
TTITLE6=JORGE E MATEUS - BOBINHA
TTITLE7=JORGE E MATEUS - DISTANTE DO PERFEITO
TTITLE8=JORGE E MATEUS - AMOR TURISTA
TTITLE9=JORGE E MATEUS - MENINA MALUQUINHA
TTITLE10=JORGE E MATEUS - INESPERADO
TTITLE11=JORGE E MATEUS - CORACAO CALEJADO
TTITLE12=JORGE E MATEUS - TRES PONTINHOS
TTITLE13=JORGE E MATEUS - TERRA SEM CEP
EXTD=YEAR: 2018
EXTT0=
EXTT1=
EXTT2=
EXTT3=
EXTT4=
EXTT5=
EXTT6=
EXTT7=
EXTT8=
EXTT9=
EXTT10=
EXTT11=
EXTT12=
EXTT13=
PLAYORDER=
